<svg width="214" height="30" viewBox="0 0 214 30" fill="none" xmlns="http://www.w3.org/2000/svg">
<path d="M11.2341 29.56C7.82073 29.56 5.11406 28.6 3.11406 26.68C1.11406 24.7333 0.114063 21.9333 0.114063 18.28V11.72C0.114063 8.06667 1.11406 5.28 3.11406 3.36C5.11406 1.41333 7.82073 0.439998 11.2341 0.439998C14.5941 0.439998 17.1807 1.37333 18.9941 3.24C20.8341 5.10667 21.7541 7.65333 21.7541 10.88V11.12H17.4741V10.76C17.4741 8.86667 16.9541 7.32 15.9141 6.12C14.9007 4.92 13.3407 4.32 11.2341 4.32C9.10073 4.32 7.43406 4.97333 6.23406 6.28C5.03406 7.56 4.43406 9.34667 4.43406 11.64V18.36C4.43406 20.6267 5.03406 22.4133 6.23406 23.72C7.43406 25.0267 9.10073 25.68 11.2341 25.68C13.3407 25.68 14.9007 25.08 15.9141 23.88C16.9541 22.6533 17.4741 21.1067 17.4741 19.24V18.56H21.7541V19.12C21.7541 22.3467 20.8341 24.8933 18.9941 26.76C17.1807 28.6267 14.5941 29.56 11.2341 29.56ZM35.8972 29.56C33.9239 29.56 32.1639 29.16 30.6172 28.36C29.0972 27.5333 27.8972 26.36 27.0172 24.84C26.1372 23.32 25.6972 21.52 25.6972 19.44V18.84C25.6972 16.76 26.1372 14.9733 27.0172 13.48C27.8972 11.96 29.0972 10.7867 30.6172 9.96C32.1639 9.13333 33.9239 8.72 35.8972 8.72C37.8705 8.72 39.6305 9.13333 41.1772 9.96C42.7239 10.7867 43.9372 11.96 44.8172 13.48C45.6972 14.9733 46.1372 16.76 46.1372 18.84V19.44C46.1372 21.52 45.6972 23.32 44.8172 24.84C43.9372 26.36 42.7239 27.5333 41.1772 28.36C39.6305 29.16 37.8705 29.56 35.8972 29.56ZM35.8972 25.88C37.7105 25.88 39.1772 25.3067 40.2972 24.16C41.4439 22.9867 42.0172 21.3733 42.0172 19.32V18.96C42.0172 16.9067 41.4572 15.3067 40.3372 14.16C39.2172 12.9867 37.7372 12.4 35.8972 12.4C34.1105 12.4 32.6439 12.9867 31.4972 14.16C30.3772 15.3067 29.8172 16.9067 29.8172 18.96V19.32C29.8172 21.3733 30.3772 22.9867 31.4972 24.16C32.6439 25.3067 34.1105 25.88 35.8972 25.88ZM59.4266 29.56C57.7999 29.56 56.2932 29.16 54.9066 28.36C53.5199 27.56 52.3999 26.4133 51.5466 24.92C50.7199 23.4 50.3066 21.5733 50.3066 19.44V18.84C50.3066 16.7333 50.7199 14.92 51.5466 13.4C52.3732 11.88 53.4799 10.72 54.8666 9.92C56.2532 9.12 57.7732 8.72 59.4266 8.72C60.7066 8.72 61.7732 8.88 62.6266 9.2C63.5066 9.52 64.2266 9.93333 64.7866 10.44C65.3466 10.92 65.7732 11.4267 66.0666 11.96H66.7066V0.999998H70.8266V29H66.7866V26.2H66.1466C65.6399 27.0533 64.8666 27.8267 63.8266 28.52C62.8132 29.2133 61.3466 29.56 59.4266 29.56ZM60.5866 25.96C62.3732 25.96 63.8399 25.3867 64.9866 24.24C66.1599 23.0933 66.7466 21.4533 66.7466 19.32V18.96C66.7466 16.8533 66.1732 15.2267 65.0266 14.08C63.8799 12.9333 62.3999 12.36 60.5866 12.36C58.8266 12.36 57.3599 12.9333 56.1866 14.08C55.0399 15.2267 54.4666 16.8533 54.4666 18.96V19.32C54.4666 21.4533 55.0399 23.0933 56.1866 24.24C57.3599 25.3867 58.8266 25.96 60.5866 25.96ZM85.9316 29.56C83.9316 29.56 82.1849 29.1467 80.6916 28.32C79.1982 27.4667 78.0249 26.28 77.1716 24.76C76.3449 23.2133 75.9316 21.4267 75.9316 19.4V18.92C75.9316 16.8667 76.3449 15.08 77.1716 13.56C77.9982 12.0133 79.1449 10.8267 80.6116 10C82.1049 9.14667 83.8249 8.72 85.7716 8.72C87.6649 8.72 89.3182 9.14667 90.7316 10C92.1716 10.8267 93.2916 11.9867 94.0916 13.48C94.8916 14.9733 95.2916 16.72 95.2916 18.72V20.28H80.1316C80.1849 22.0133 80.7582 23.4 81.8516 24.44C82.9716 25.4533 84.3582 25.96 86.0116 25.96C87.5582 25.96 88.7182 25.6133 89.4916 24.92C90.2916 24.2267 90.9049 23.4267 91.3316 22.52L94.7316 24.28C94.3582 25.0267 93.8116 25.8133 93.0916 26.64C92.3982 27.4667 91.4782 28.16 90.3316 28.72C89.1849 29.28 87.7182 29.56 85.9316 29.56ZM80.1716 17.12H91.0916C90.9849 15.6267 90.4516 14.4667 89.4916 13.64C88.5316 12.7867 87.2782 12.36 85.7316 12.36C84.1849 12.36 82.9182 12.7867 81.9316 13.64C80.9716 14.4667 80.3849 15.6267 80.1716 17.12Z" fill="#E07B67"/>
<path d="M100.251 29V0.999998H104.371V29H100.251ZM116.605 29.56C115.192 29.56 113.925 29.32 112.805 28.84C111.712 28.36 110.832 27.6533 110.165 26.72C109.525 25.7867 109.205 24.6533 109.205 23.32C109.205 21.96 109.525 20.84 110.165 19.96C110.832 19.0533 111.725 18.3733 112.845 17.92C113.992 17.4667 115.285 17.24 116.725 17.24H122.725V15.96C122.725 14.8133 122.379 13.8933 121.685 13.2C120.992 12.5067 119.925 12.16 118.485 12.16C117.072 12.16 115.992 12.4933 115.245 13.16C114.499 13.8267 114.005 14.6933 113.765 15.76L109.925 14.52C110.245 13.4533 110.752 12.4933 111.445 11.64C112.165 10.76 113.112 10.0533 114.285 9.52C115.459 8.98667 116.872 8.72 118.525 8.72C121.085 8.72 123.099 9.37333 124.565 10.68C126.032 11.9867 126.765 13.84 126.765 16.24V24.36C126.765 25.16 127.139 25.56 127.885 25.56H129.565V29H126.485C125.552 29 124.792 28.76 124.205 28.28C123.619 27.8 123.325 27.1467 123.325 26.32V26.2H122.725C122.512 26.6 122.192 27.0667 121.765 27.6C121.339 28.1333 120.712 28.6 119.885 29C119.059 29.3733 117.965 29.56 116.605 29.56ZM117.205 26.16C118.859 26.16 120.192 25.6933 121.205 24.76C122.219 23.8 122.725 22.4933 122.725 20.84V20.44H116.965C115.872 20.44 114.992 20.68 114.325 21.16C113.659 21.6133 113.325 22.2933 113.325 23.2C113.325 24.1067 113.672 24.8267 114.365 25.36C115.059 25.8933 116.005 26.16 117.205 26.16ZM111.405 6.88L116.205 1.16H121.165L125.965 6.88H121.645L119.005 3.72H118.365L115.725 6.88H111.405ZM133.571 29V9.28H137.611V12.24H138.251C138.625 11.44 139.291 10.6933 140.251 10C141.211 9.30667 142.638 8.96 144.531 8.96C146.025 8.96 147.345 9.29333 148.491 9.96C149.665 10.6267 150.585 11.5733 151.251 12.8C151.918 14 152.251 15.4533 152.251 17.16V29H148.131V17.48C148.131 15.7733 147.705 14.52 146.851 13.72C145.998 12.8933 144.825 12.48 143.331 12.48C141.625 12.48 140.251 13.04 139.211 14.16C138.198 15.28 137.691 16.9067 137.691 19.04V29H133.571ZM166.341 29.56C164.714 29.56 163.207 29.16 161.821 28.36C160.434 27.56 159.314 26.4133 158.461 24.92C157.634 23.4 157.221 21.5733 157.221 19.44V18.84C157.221 16.7333 157.634 14.92 158.461 13.4C159.287 11.88 160.394 10.72 161.781 9.92C163.167 9.12 164.687 8.72 166.341 8.72C167.621 8.72 168.687 8.88 169.541 9.2C170.421 9.52 171.141 9.93333 171.701 10.44C172.261 10.92 172.687 11.4267 172.981 11.96H173.621V0.999998H177.741V29H173.701V26.2H173.061C172.554 27.0533 171.781 27.8267 170.741 28.52C169.727 29.2133 168.261 29.56 166.341 29.56ZM167.501 25.96C169.287 25.96 170.754 25.3867 171.901 24.24C173.074 23.0933 173.661 21.4533 173.661 19.32V18.96C173.661 16.8533 173.087 15.2267 171.941 14.08C170.794 12.9333 169.314 12.36 167.501 12.36C165.741 12.36 164.274 12.9333 163.101 14.08C161.954 15.2267 161.381 16.8533 161.381 18.96V19.32C161.381 21.4533 161.954 23.0933 163.101 24.24C164.274 25.3867 165.741 25.96 167.501 25.96ZM183.806 29V9.28H187.926V29H183.806ZM185.886 6.6C185.086 6.6 184.406 6.34667 183.846 5.84C183.312 5.30666 183.046 4.62666 183.046 3.8C183.046 2.97333 183.312 2.30667 183.846 1.8C184.406 1.26667 185.086 0.999998 185.886 0.999998C186.712 0.999998 187.392 1.26667 187.926 1.8C188.459 2.30667 188.726 2.97333 188.726 3.8C188.726 4.62666 188.459 5.30666 187.926 5.84C187.392 6.34667 186.712 6.6 185.886 6.6ZM200.16 29.56C198.747 29.56 197.48 29.32 196.36 28.84C195.267 28.36 194.387 27.6533 193.72 26.72C193.08 25.7867 192.76 24.6533 192.76 23.32C192.76 21.96 193.08 20.84 193.72 19.96C194.387 19.0533 195.28 18.3733 196.4 17.92C197.547 17.4667 198.84 17.24 200.28 17.24H206.28V15.96C206.28 14.8133 205.933 13.8933 205.24 13.2C204.547 12.5067 203.48 12.16 202.04 12.16C200.627 12.16 199.547 12.4933 198.8 13.16C198.053 13.8267 197.56 14.6933 197.32 15.76L193.48 14.52C193.8 13.4533 194.307 12.4933 195 11.64C195.72 10.76 196.667 10.0533 197.84 9.52C199.013 8.98667 200.427 8.72 202.08 8.72C204.64 8.72 206.653 9.37333 208.12 10.68C209.587 11.9867 210.32 13.84 210.32 16.24V24.36C210.32 25.16 210.693 25.56 211.44 25.56H213.12V29H210.04C209.107 29 208.347 28.76 207.76 28.28C207.173 27.8 206.88 27.1467 206.88 26.32V26.2H206.28C206.067 26.6 205.747 27.0667 205.32 27.6C204.893 28.1333 204.267 28.6 203.44 29C202.613 29.3733 201.52 29.56 200.16 29.56ZM200.76 26.16C202.413 26.16 203.747 25.6933 204.76 24.76C205.773 23.8 206.28 22.4933 206.28 20.84V20.44H200.52C199.427 20.44 198.547 20.68 197.88 21.16C197.213 21.6133 196.88 22.2933 196.88 23.2C196.88 24.1067 197.227 24.8267 197.92 25.36C198.613 25.8933 199.56 26.16 200.76 26.16Z" fill="white"/>
</svg>
